<svg xmlns="http://www.w3.org/2000/svg" id="Layer_1" data-name="Layer 1" viewBox="0 0 1403.06 774.22">
  <defs>
    <style>
      .cls-1 {
        fill: #5c49f7;
      }

      .cls-2 {
        fill: #a19cff;
      }

      .cls-3 {
        fill: #2f248b;
      }
    </style>
  </defs>
  <g>
    <g>
      <path class="cls-1" d="M534.69,362.82s0,.12-.02.33h-68.42l-54.71-58.24h70.21s53.09,1.93,52.94,57.91Z"/>
      <path class="cls-3" d="M534.67,363.16c-.17,4.9-5.17,60.67-68.42,56.52v-56.52h68.42Z"/>
    </g>
    <path class="cls-2" d="M408.44,420.98v48.34h57.81v-106.16c-31.92,0-57.81,25.89-57.81,57.82Z"/>
  </g>
  <g>
    <path class="cls-3" d="M597.61,346.79c17.39,0,31.6,14.09,31.6,31.6s-14.21,31.6-31.6,31.6c-8.21,0-14.82-3.43-19.36-8.82v32.34h-12.13v-55.12c0-17.52,14.09-31.6,31.48-31.6ZM617.21,378.4c0-11.15-8.33-19.97-19.6-19.97s-19.6,8.82-19.6,19.97,8.57,19.97,19.6,19.97,19.6-8.82,19.6-19.97Z"/>
    <path class="cls-3" d="M635.95,377.05c0-20.33,10.9-29.52,25.72-29.52h1.22v11.64h-1.22c-8.58,0-13.72,5.51-13.72,17.88v31.97h-12v-31.97Z"/>
    <path class="cls-3" d="M665.96,378.4c0-17.52,14.21-31.6,31.6-31.6s31.48,14.09,31.48,31.6v30.62h-12v-9.68c-2.94,6-10.78,10.66-19.48,10.66-17.39,0-31.6-14.09-31.6-31.6ZM717.17,378.4c0-11.15-8.21-19.97-19.48-19.97s-19.72,8.82-19.72,19.97,8.57,19.97,19.72,19.97,19.48-8.82,19.48-19.97Z"/>
    <path class="cls-3" d="M735.79,378.4c0-17.52,14.09-31.6,31.6-31.6,13.47,0,24.87,8.45,29.15,20.21h-12.86c-3.43-5.15-9.19-8.57-16.17-8.57-11.27,0-19.72,8.82-19.72,19.97s8.57,19.97,19.72,19.97c6.86,0,12.5-3.31,15.92-8.33h13.11c-4.41,11.76-15.8,19.97-29.15,19.97-17.52,0-31.6-14.09-31.6-31.6Z"/>
    <path class="cls-3" d="M821.53,359.41v20.58c0,11.64,4.53,17.03,13.23,17.76v11.64c-14.7-.61-25.11-9.56-25.23-29.28v-20.7h-9.06v-11.64h9.06v-21.93h12v21.93h13.23v11.64h-13.23Z"/>
    <path class="cls-3" d="M840.52,331.97c0-4.17,3.19-7.35,7.35-7.35s7.23,3.19,7.23,7.35-3.18,7.35-7.23,7.35-7.35-3.19-7.35-7.35ZM841.87,347.77h12v61.25h-12v-61.25Z"/>
    <path class="cls-3" d="M861.83,378.4c0-17.52,14.09-31.6,31.6-31.6,13.47,0,24.87,8.45,29.15,20.21h-12.86c-3.43-5.15-9.19-8.57-16.17-8.57-11.27,0-19.72,8.82-19.72,19.97s8.57,19.97,19.72,19.97c6.86,0,12.5-3.31,15.92-8.33h13.11c-4.41,11.76-15.8,19.97-29.15,19.97-17.52,0-31.6-14.09-31.6-31.6Z"/>
    <path class="cls-3" d="M959.95,346.79c15.8,0,30.99,11.52,31.6,30.5,0,2.08-.12,3.92-.37,5.51h-49.49c.98,9.06,8.33,15.56,18.25,15.56,6.74,0,11.51-2.69,14.7-6.12l14.33.12c-5.27,10.53-16.29,17.64-28.67,17.64-17.64,0-31.48-14.09-31.48-31.48s13.47-31.73,31.11-31.73ZM978.69,373.01c-2.21-8.33-9.55-14.58-18.38-14.58-9.55,0-16.41,6.25-18.62,14.58h36.99Z"/>
  </g>
</svg>